# xmcd
#
# Track frame offsets:
#	150
#	15320
#	32165
#	46347
#	61992
#	81225
#	99080
#	115147
#	130977
#	144805
#	162165
#	180572
#	193417
#	205587
#	220437
#	235015
#
# Disc length: 3310 seconds
#
# Revision: 1
# Processed by: cddbd v1.5.2PL0 Copyright (c) Steve Scherf et al.
# Submitted via: EasyCDDAExtractor 11.0.0.1
#
DISCID=d10cec10
DTITLE=Ney and Nando - Ney and Nando Bom Bom Demais
DYEAR=2006
DGENRE=Sertanejo
TTITLE0=Pra Fazer Marcação
TTITLE1=Alguém Viu Ela Por Aí?
TTITLE2=Coração de Bico Pra Cima
TTITLE3=Só Não Vi Você Chorar Por mim
TTITLE4=The Quero Só Pra Mim (The Winner Takes The All)
TTITLE5=Vou Pra América
TTITLE6=Bonitinho é Quase Feio
TTITLE7=Bom Bom Demais
TTITLE8=A Costela
TTITLE9=Salve Esse Rio
TTITLE10=Tudo Por Nada
TTITLE11=Namoro Virtual
TTITLE12=Goiânia Show de Bola
TTITLE13=Um Milhão de Lágrimas
TTITLE14=Boa Idéia
TTITLE15=Rancho Vale Oeste
EXTD=
EXTT0=
EXTT1=
EXTT2=
EXTT3=
EXTT4=
EXTT5=
EXTT6=
EXTT7=
EXTT8=
EXTT9=
EXTT10=
EXTT11=
EXTT12=
EXTT13=
EXTT14=
EXTT15=
PLAYORDER=
